<svg id="Layer_1" data-name="Layer 1" xmlns="http://www.w3.org/2000/svg" viewBox="0 0 576 232.48"><defs><style>.cls-1{fill:#5e6367;}.cls-2{fill:#1cb1d1;}.cls-3{fill:#20aa4d;}.cls-4{fill:#006f79;}</style></defs><title>Breeding Insight</title><path class="cls-1" d="M304.51,175v-2.08l6.25-1.05v-36.7q0-11.37-9-11.37a14.71,14.71,0,0,0-9.23,3.49,37.55,37.55,0,0,0-7.88,8.61v36l6.26,1.05V175H267v-2.08l7.3-1.05V124.13l-7.3-1V121h17.72v11.27q8.46-12.21,20.34-12.21,7.5,0,11.83,3.76T321.19,135v36.91l7.3,1.05V175Z"/><path class="cls-1" d="M355.6,176.06q-21.06,0-21.06-11.57a7.92,7.92,0,0,1,1.82-5.22,6,6,0,0,1,4.85-2.19,5.76,5.76,0,0,1,3.5,1.21,6.14,6.14,0,0,1,2.24,3.17,6.48,6.48,0,0,0-1.78,4.39,7.29,7.29,0,0,0,2.72,6.15c1.8,1.39,4.38,2.08,7.71,2.08a18.14,18.14,0,0,0,10.69-3q4.23-3,4.23-6.83a7,7,0,0,0-2.87-6.15,37.83,37.83,0,0,0-9.44-4.07l-13.45-4.28q-9.39-2.7-9.38-13.76a14.29,14.29,0,0,1,5.37-11.42q5.36-4.53,14.23-4.54,8.44,0,13.35,3t4.9,7.77a6.47,6.47,0,0,1-1.67,4.53,5.53,5.53,0,0,1-4.28,1.83,5.35,5.35,0,0,1-3.59-1.2,4.1,4.1,0,0,1-1.41-3.29,4.62,4.62,0,0,0,2.19-4.06q0-6.57-9.49-6.57-6.78,0-10.74,2.71c-2.65,1.81-4,4-4,6.46a7,7,0,0,0,1.4,4.8c.94,1,2.77,2,5.48,2.92l16.58,5.11q5.94,1.88,8.6,5.58t2.66,9.85a16.17,16.17,0,0,1-4.85,11.58Q365.31,176.07,355.6,176.06Z"/><path class="cls-1" d="M381.3,123.19v-2.08H399v50.78l7.3,1.05V175h-25v-2.08l7.3-1.05V124.24Z"/><path class="cls-1" d="M466.41,103.4v-1.69h17.73v28.14q8.44-9.88,20.33-9.88,7.51,0,11.84,3t4.33,9v40.45l7.3.84V175H504v-1.69l6.26-.84V132.21q0-9.2-9-9.2a16.87,16.87,0,0,0-9.23,2.83,34.22,34.22,0,0,0-7.87,7v39.69l6.26.84V175h-24v-1.69l7.3-.84V104.24Z"/><path class="cls-1" d="M559.38,121v2.09l-13.56,1v37.41q0,11.09,7.93,11.08a9.77,9.77,0,0,0,3.33-.6,12.75,12.75,0,0,0,2.51-1.14l.83-.66,1.36,1.67a16.38,16.38,0,0,1-11.27,4.17q-15.1,0-15.12-14.39V124.13l-7.4-1V121h7.4V106.56l10.43-2.6v17Z"/><polygon class="cls-1" points="262.17 103.71 262.17 101.71 254.87 101.71 244.45 101.71 237.15 101.71 237.15 103.71 244.44 104.71 244.44 172.02 237.15 173.02 237.15 175.02 262.17 175.02 262.17 173.02 254.88 172.02 254.88 104.71 262.17 103.71"/><path class="cls-1" d="M447.28,176H427.22q-14.5,0-14.5-10a11.08,11.08,0,0,1,2.52-7.48,11.51,11.51,0,0,1,6.84-3.75q-8-5.16-8-15.68,0-8.9,6-14T434.94,120a22.71,22.71,0,0,1,14.29,4.45,10.59,10.59,0,0,0,5.87-1.87,4.62,4.62,0,0,0,1.95-3.69,3.41,3.41,0,0,0-3.5-3.64,5.8,5.8,0,0,1,1.91-4.35,6.23,6.23,0,0,1,4.47-1.82,6.64,6.64,0,0,1,4.63,1.67,5.76,5.76,0,0,1,1.85,4.5,9.27,9.27,0,0,1-3.65,7.38q-3.64,3-11.57,3.64A17.88,17.88,0,0,1,456,139.11q0,8.8-6,13.91t-15.11,5.11a24.17,24.17,0,0,1-10.08-1.92,9.79,9.79,0,0,0-5,1.52,4.27,4.27,0,0,0-1.9,3.74q0,2.33,2.62,3.59a15.16,15.16,0,0,0,6.63,1.27h17c5.49,0,9.63,1,12.45,3.13s4.21,5.64,4.21,10.63a21.68,21.68,0,0,1-6.73,16.23q-6.74,6.54-18.47,6.53-13.36,0-19.69-3.89t-6.32-10.27a9.13,9.13,0,0,1,2.67-6.53,9.67,9.67,0,0,1,7.3-2.78,34.41,34.41,0,0,1,3.81.4,11.8,11.8,0,0,0-3.19,8.5,12.44,12.44,0,0,0,3.65,8.75q3.64,3.9,11.88,3.9,9.66,0,15.89-5.11t6.22-11.48q0-4.35-2.26-6.33T447.28,176Zm-.93-34.5v-5q0-14.87-11.41-14.87-11.22,0-11.21,14.87v5q0,7,2.77,10.93t8.44,3.94q5.76,0,8.59-3.94T446.35,141.54Z"/><path class="cls-1" d="M236.75,51.4h13.86c7.74,0,11.58,4.47,11.58,10.14a8.09,8.09,0,0,1-5.85,8.19C261,70.82,264,73.86,264,79.3c0,6.3-4.24,11.06-12.37,11.06H236.75Zm13.52,16.22c4.07,0,5.9-2.3,5.9-5.5s-1.78-5.45-6-5.45h-7.33v11Zm1,17.47c4.47,0,6.65-2.58,6.65-6.25,0-3.83-2.41-6.3-7-6.3h-8.08V85.09Z"/><path class="cls-1" d="M286.66,90.36h-6.13v-39H293c9.11,0,14.32,5,14.32,12.38,0,5.44-2.69,9.34-7.56,11.11l9.39,15.47h-6.7L293.76,76h-7.1Zm6.13-19.65c5.78,0,8.19-2.29,8.19-6.93s-2.46-6.94-8.19-6.94h-6.13V70.71Z"/><path class="cls-1" d="M324.88,51.4h24.8v5.44H331V68h16.55v5.32H331V84.92h19.48v5.44H324.88Z"/><path class="cls-1" d="M367.74,51.4h24.8v5.44H373.87V68h16.55v5.32H373.87V84.92h19.48v5.44H367.74Z"/><path class="cls-1" d="M410.6,51.4h11c12.72,0,20.51,8,20.51,19.48s-7.74,19.48-20.51,19.48h-11Zm10.65,33.52c10.09,0,14.5-5.79,14.5-14s-4.41-14-14.5-14h-4.52V84.92Z"/><path class="cls-1" d="M459,51.4h6.13v39H459Z"/><path class="cls-1" d="M489.55,64.75V90.36h-5.72V50.83h.45l25,26.18V51.4H515V90.93h-.46Z"/><path class="cls-1" d="M531.62,70.88a19.62,19.62,0,0,1,20-20c7.22,0,11.57,2.57,14.78,6.18l-4.24,4c-2.35-2.57-5-4.64-10.71-4.64-7.91,0-13.47,6.19-13.47,14.44s5.62,14.44,14.5,14.44a16.45,16.45,0,0,0,9.45-2.47V75H551.49V69.56h16.1V85.78c-3.26,2.69-7.79,5.09-15.12,5.09C540.49,90.87,531.62,82.4,531.62,70.88Z"/><path class="cls-2" d="M170.74,87.44a144.42,144.42,0,0,1,12.94-39.39L156,75.71A148.41,148.41,0,0,0,170.74,87.44Z"/><path class="cls-2" d="M45.82,139.19a144.31,144.31,0,0,1-12.94,39.39l27.66-27.66A148.41,148.41,0,0,0,45.82,139.19Z"/><path class="cls-2" d="M82.41,50.85A144.52,144.52,0,0,1,43,37.92L70.67,65.57A148.81,148.81,0,0,0,82.41,50.85Z"/><path class="cls-2" d="M173.54,37.91a144.2,144.2,0,0,1-39.39,12.94,147.27,147.27,0,0,0,11.73,14.72Z"/><path class="cls-2" d="M43,188.71a144.54,144.54,0,0,1,39.39-12.94,149.86,149.86,0,0,0-11.74-14.71Z"/><path class="cls-2" d="M32.88,48.05A144.31,144.31,0,0,1,45.82,87.44,148.41,148.41,0,0,0,60.54,75.71Z"/><path class="cls-2" d="M156,150.92l27.66,27.66a144.42,144.42,0,0,1-12.94-39.39A148.41,148.41,0,0,0,156,150.92Z"/><path class="cls-2" d="M134.15,175.77a144.54,144.54,0,0,1,39.39,12.94l-27.66-27.65A148.29,148.29,0,0,0,134.15,175.77Z"/><path class="cls-3" d="M207.74,106.15a144.53,144.53,0,0,1-37-18.71,149,149,0,0,0-2.11,18.71Z"/><path class="cls-3" d="M101.11,13.85a144.18,144.18,0,0,1-18.7,37A146.8,146.8,0,0,0,101.11,53Z"/><path class="cls-3" d="M170.74,139.19a144.53,144.53,0,0,1,37-18.71H168.63A149,149,0,0,0,170.74,139.19Z"/><path class="cls-3" d="M134.15,50.85a144.28,144.28,0,0,1-18.7-37V53A147,147,0,0,0,134.15,50.85Z"/><path class="cls-3" d="M8.82,120.48a144.86,144.86,0,0,1,37,18.71,149,149,0,0,0,2.11-18.71Z"/><path class="cls-3" d="M82.41,175.77a144.4,144.4,0,0,1,18.7,37V173.66A148.62,148.62,0,0,0,82.41,175.77Z"/><path class="cls-3" d="M45.82,87.44a144.69,144.69,0,0,1-37,18.71H47.93A149,149,0,0,0,45.82,87.44Z"/><path class="cls-3" d="M115.45,212.77a144.5,144.5,0,0,1,18.7-37,148.83,148.83,0,0,0-18.7-2.11Z"/><path class="cls-4" d="M137.6,132.49,156,150.92a148.41,148.41,0,0,1,14.72-11.73,149,149,0,0,1-2.11-18.71H142.57A7,7,0,0,0,137.6,132.49Z"/><path class="cls-4" d="M89.1,142.63,70.67,161.06a149.86,149.86,0,0,1,11.74,14.71,148.62,148.62,0,0,1,18.7-2.11v-26A7,7,0,0,0,89.1,142.63Z"/><path class="cls-4" d="M115.45,147.61v26a148.83,148.83,0,0,1,18.7,2.11,148.29,148.29,0,0,1,11.73-14.71l-18.42-18.43A7,7,0,0,0,115.45,147.61Z"/><path class="cls-4" d="M127.46,84l18.42-18.43a147.27,147.27,0,0,1-11.73-14.72A147,147,0,0,1,115.45,53V79A7,7,0,0,0,127.46,84Z"/><path class="cls-4" d="M101.11,79V53a146.8,146.8,0,0,1-18.7-2.12A148.81,148.81,0,0,1,70.67,65.57L89.1,84A7,7,0,0,0,101.11,79Z"/><path class="cls-4" d="M74,120.48H47.93a149,149,0,0,1-2.11,18.71,148.41,148.41,0,0,1,14.72,11.73L79,132.49A7,7,0,0,0,74,120.48Z"/><path class="cls-4" d="M142.57,106.15h26.06a149,149,0,0,1,2.11-18.71A148.41,148.41,0,0,1,156,75.71L137.6,94.13A7,7,0,0,0,142.57,106.15Z"/><path class="cls-4" d="M79,94.13,60.54,75.71A148.41,148.41,0,0,1,45.82,87.44a149,149,0,0,1,2.11,18.71H74A7,7,0,0,0,79,94.13Z"/><circle class="cls-1" cx="392.96" cy="109.07" r="5.08"/></svg>