<?xml version="1.0" encoding="UTF-8"?><svg id="Layer_1" xmlns="http://www.w3.org/2000/svg" xmlns:xlink="http://www.w3.org/1999/xlink" viewBox="0 0 740 264"><defs><style>.cls-1{fill:#575c5c;}.cls-2{fill:url(#New_Gradient_Swatch_5);}.cls-3{fill:url(#New_Gradient_Swatch_4);}.cls-4{fill:url(#New_Gradient_Swatch_4-2);}.cls-5{fill:url(#New_Gradient_Swatch_4-3);}.cls-6{fill:url(#New_Gradient_Swatch_5-2);}.cls-7{fill:url(#New_Gradient_Swatch_5-3);}</style><linearGradient id="New_Gradient_Swatch_5" x1="67.52" y1="53.75" x2="163.06" y2="53.75" gradientUnits="userSpaceOnUse"><stop offset="0" stop-color="#59d47f"/><stop offset=".16" stop-color="#51c874"/><stop offset=".45" stop-color="#3dab58"/><stop offset=".59" stop-color="#319a47"/></linearGradient><linearGradient id="New_Gradient_Swatch_5-2" x1="1.94" y1="86.54" x2="163.07" y2="86.54" xlink:href="#New_Gradient_Swatch_5"/><linearGradient id="New_Gradient_Swatch_5-3" x1="34.73" y1="70.15" x2="163.07" y2="70.15" xlink:href="#New_Gradient_Swatch_5"/><linearGradient id="New_Gradient_Swatch_4" x1="67.79" y1="208.93" x2="202.1" y2="208.93" gradientUnits="userSpaceOnUse"><stop offset="0" stop-color="#64ddf5"/><stop offset="1" stop-color="#006469"/></linearGradient><linearGradient id="New_Gradient_Swatch_4-2" x1="35" y1="192.53" x2="220.87" y2="192.53" xlink:href="#New_Gradient_Swatch_4"/><linearGradient id="New_Gradient_Swatch_4-3" x1="2.2" y1="176.13" x2="201.64" y2="176.13" xlink:href="#New_Gradient_Swatch_4"/></defs><g><g><path class="cls-2" d="M160.18,105.69h2.88v-15.6h-2.88c-42.49,0-77.06-34.57-77.06-77.06,0-2.65,.14-5.35,.42-8.04l.33-3.18h-15.7l-.24,2.62c-.28,3.01-.41,5.83-.41,8.6,0,51.09,41.57,92.66,92.66,92.66Z"/><path class="cls-6" d="M150.09,155.28c-.75-.05-1.5-.11-2.25-.17-3.31-.29-6.6-.66-9.84-1.17-.22-.03-.44-.08-.66-.12-3.15-.51-6.26-1.14-9.34-1.86-.52-.12-1.04-.23-1.56-.36-3.28-.8-6.52-1.7-9.7-2.72-.16-.05-.31-.11-.47-.16-3.22-1.05-6.39-2.2-9.5-3.47-.15-.06-.31-.12-.46-.18-3.25-1.33-6.44-2.78-9.57-4.34-.03-.02-.07-.04-.1-.05-6.35-3.18-12.44-6.82-18.21-10.87h0C41.65,103.99,17.54,61.29,17.54,13.03c0-2.74,.1-5.47,.25-8.17l.17-3.05H2.32l-.15,2.73c-.15,2.81-.23,5.64-.23,8.49,0,59.31,32.82,111.08,81.24,138.17,0,0,.01,0,.02,.01,3.67,2.05,7.43,3.95,11.27,5.71,.29,.13,.57,.26,.86,.39,3.8,1.72,7.67,3.3,11.62,4.72,.14,.05,.28,.09,.41,.14,3.94,1.4,7.95,2.65,12.03,3.74,.17,.05,.34,.1,.51,.15,3.91,1.03,7.88,1.88,11.9,2.61,.66,.12,1.31,.24,1.97,.35,3.9,.66,7.85,1.18,11.85,1.55,.66,.06,1.32,.1,1.99,.15,4.16,.33,8.34,.55,12.58,.55h2.88v-15.6h-2.88c-3.4,0-6.75-.16-10.09-.4Z"/><path class="cls-7" d="M160.18,122.88h0c-3.36,0-6.67-.21-9.95-.5-.81-.07-1.61-.15-2.41-.24-3.17-.36-6.31-.82-9.4-1.44-.52-.11-1.03-.25-1.55-.36-2.61-.57-5.18-1.24-7.71-1.99-.92-.27-1.85-.54-2.76-.84-2.77-.9-5.5-1.89-8.17-3-.89-.37-1.75-.79-2.62-1.18-1.99-.89-3.94-1.83-5.87-2.83-.97-.5-1.94-.99-2.89-1.52C73.18,90.2,50.33,54.25,50.33,13.03c0-2.46,.11-5.05,.33-8.13l.23-3.09h-15.66l-.18,2.69c-.22,3.24-.32,5.95-.32,8.53,0,48.68,27.89,90.95,68.52,111.73,.12,.06,.23,.12,.35,.18,5.48,2.78,11.2,5.18,17.11,7.14,.26,.09,.52,.18,.78,.26,2.85,.93,5.73,1.75,8.67,2.48,.37,.09,.75,.17,1.13,.26,2.72,.64,5.47,1.21,8.25,1.67,.31,.05,.61,.11,.92,.16,2.89,.46,5.82,.8,8.77,1.06,.64,.06,1.27,.1,1.91,.15,3,.21,6.01,.36,9.06,.36h2.88v-15.6h-2.88Z"/></g><g><path class="cls-3" d="M163.33,155.67h-2.88c-51.09,0-92.66,41.56-92.66,92.66,0,3.65,.24,7.46,.72,11.32l.31,2.53h15.77l-.45-3.28c-.49-3.58-.74-7.14-.74-10.58,0-42.49,34.57-77.06,77.06-77.06h.52v.06h28.22l12.92-15.62h-38.77v-.04Z"/><path class="cls-4" d="M214.27,122.87h-51.54v.02h-2.28c-69.17,0-125.45,56.28-125.45,125.45,0,3.58,.17,7.25,.53,11.23l.23,2.63h15.67l-.31-3.16c-.35-3.62-.53-7.22-.53-10.69,0-60.57,49.28-109.85,109.85-109.85h2.88v-.02h51.1l6.44-7.78-6.59-7.81Z"/><path class="cls-5" d="M17.8,248.33c0-78.65,63.99-142.64,142.65-142.64h2.88s38.31,0,38.31,0l-13.18-15.62h-27.5v.02h-.52C73.19,90.09,2.2,161.08,2.2,248.33c0,3.35,.14,6.9,.44,11.17l.19,2.68h15.66l-.23-3.1c-.31-4.08-.45-7.5-.45-10.76Z"/></g></g><g><path class="cls-1" d="M331.76,71.76c0,15.36-4.27,27.11-12.8,35.23-8.53,8.13-20.81,12.19-36.85,12.19h-26.03V26.12h28.77c14.81,0,26.33,3.99,34.57,11.97,8.23,7.98,12.35,19.2,12.35,33.67Zm-16.04,.51c0-22.28-10.42-33.41-31.26-33.41h-13.17V106.39h10.82c22.41,0,33.61-11.37,33.61-34.12Z"/><path class="cls-1" d="M415.84,119.18h-52.64V26.12h52.64v12.86h-37.43v25.34h35.07v12.73h-35.07v29.22h37.43v12.92Z"/><path class="cls-1" d="M466.64,119.18V26.12h15.21V106.14h39.4v13.05h-54.62Z"/><path class="cls-1" d="M599.42,119.18h-15.21V39.17h-27.37v-13.05h69.96v13.05h-27.37V119.18Z"/><path class="cls-1" d="M256.08,144.55h27.63c12.81,0,22.08,1.87,27.78,5.6,5.71,3.73,8.56,9.63,8.56,17.7,0,5.43-1.4,9.95-4.2,13.56-2.8,3.61-6.83,5.88-12.09,6.81v.64c6.54,1.23,11.34,3.66,14.42,7.29s4.61,8.54,4.61,14.74c0,8.36-2.92,14.9-8.75,19.64-5.84,4.73-13.95,7.1-24.35,7.1h-33.61v-93.06Zm15.21,38.45h14.64c6.37,0,11.01-1.01,13.94-3.02,2.93-2.01,4.39-5.44,4.39-10.28,0-4.37-1.58-7.53-4.74-9.49-3.16-1.95-8.18-2.92-15.06-2.92h-13.17v25.71Zm0,12.35v29.47h16.17c6.37,0,11.17-1.22,14.42-3.66,3.25-2.44,4.87-6.29,4.87-11.56,0-4.84-1.65-8.43-4.97-10.76-3.31-2.33-8.34-3.5-15.08-3.5h-15.4Z"/><path class="cls-1" d="M378.42,200.44v37.18h-15.21v-93.06h26.29c12.01,0,20.9,2.25,26.67,6.75,5.77,4.5,8.66,11.29,8.66,20.37,0,11.59-6.02,19.84-18.08,24.76l26.29,41.19h-17.31l-22.28-37.18h-15.02Zm0-12.6h10.56c7.09,0,12.22-1.31,15.4-3.94,3.18-2.63,4.78-6.53,4.78-11.71s-1.72-9.04-5.16-11.33c-3.44-2.29-8.61-3.44-15.53-3.44h-10.06v30.43Z"/><path class="cls-1" d="M520.23,237.61h-52.64v-93.06h52.64v12.86h-37.43v25.34h35.07v12.73h-35.07v29.22h37.43v12.92Z"/><path class="cls-1" d="M618.51,237.61h-52.64v-93.06h52.64v12.86h-37.43v25.34h35.07v12.73h-35.07v29.22h37.43v12.92Z"/><path class="cls-1" d="M737.61,190.19c0,15.36-4.27,27.11-12.8,35.23-8.53,8.13-20.81,12.19-36.85,12.19h-26.03v-93.06h28.77c14.81,0,26.33,3.99,34.57,11.97,8.23,7.98,12.35,19.2,12.35,33.67Zm-16.04,.51c0-22.28-10.42-33.41-31.26-33.41h-13.17v67.53h10.82c22.41,0,33.61-11.37,33.61-34.12Z"/><path class="cls-1" d="M721.92,119.07h16.14l-42.92-95.06-43.12,95.06h16.01s3.58-7.5,8.14-17.17h37.84c4.44,9.66,7.91,17.17,7.91,17.17Zm-40.3-28.82c6.41-13.78,12.8-27.84,13.35-30.37,.21,.85,6.99,15.74,13.7,30.37h-27.05Z"/></g></svg>