<svg xmlns="http://www.w3.org/2000/svg" viewBox="0 0 600 200"><defs><style>.a{fill:none;}.b{fill:#046b99;}.c{fill:#3d773d;}</style></defs><title>eauthLogo-v3</title><rect class="a" width="600" height="200"/><path class="b" d="M234.1,73.16q11.95,0,19,5.82t7,16.33A24.69,24.69,0,0,1,249.55,116a39.34,39.34,0,0,1-10.83,4.94,84,84,0,0,1-24.06,3.19q.48,8.45,5.26,13.62t14.66,5.18q9.88,0,19.76-7l6.05,12.9q-3.19,2.87-10.75,5.89a46.28,46.28,0,0,1-17.29,3q-19.44,0-28.52-10.75t-9.08-29.55q0-18.8,10.36-31.54T234.1,73.16Zm-7.25,36.4a25.82,25.82,0,0,0,10.75-4.62q4.94-3.58,4.94-8.52,0-9.72-9.56-9.72-8.92,0-13.7,7.09a32.55,32.55,0,0,0-5.26,17A83.92,83.92,0,0,0,226.85,109.56Z"/><path class="b" d="M272.81,137.84,298.46,63.6l-10-1V49.74H324.9l32.5,91.92h.16l9.08.48v13.54h-41.1v-12.9l6.05-.48a6.32,6.32,0,0,0,3.66-1.27q1-1,.16-3.51l-3.35-9.88H294.79l-4.78,14,9.56.48v13.54h-36.8v-12.9l5.26-.48Q271.37,142,272.81,137.84Zm40.63-70.26L298.62,113h29.63l-14.34-45.4Z"/><path class="b" d="M446.78,143.09v12.59H421V145.32q-8.76,12.43-25.81,12.43-24.7,0-24.69-27.56V93.39q0-4.3-4-4.46l-5.1-.32V75.55h28V126q0,8.45,2.39,12.75t9.88,4.3q7.49,0,12-4.62a15.33,15.33,0,0,0,4.54-11.15V93.71a5.63,5.63,0,0,0-.88-3.58,4.34,4.34,0,0,0-3.11-1.19l-5.1-.32V75.55h28V138q0,2.55.8,3.43a5.29,5.29,0,0,0,3.19,1.19Z"/><path class="b" d="M465.42,58.66h10.36V75.55H497l-1.59,13.38h-19.6v41.9q0,7,2.55,9.8t7.89,2.79A20.36,20.36,0,0,0,497,140.07l4.78,12.27q-8,5.57-20.23,5.58a35,35,0,0,1-12.11-1.83,22,22,0,0,1-7.33-4.06,14.26,14.26,0,0,1-3.66-6.53,32.83,32.83,0,0,1-1.43-6.77q-.16-2.47-.16-7.25V88.93H445.5L447.1,77.3q7.49-.63,11.31-5.34T465.42,58.66Z"/><path class="b" d="M513.53,137.84V60.25a5.28,5.28,0,0,0-.88-3.51,4.57,4.57,0,0,0-3.11-1.12L504,55.31V42.09h28.36V84.94q8.28-11.79,23.26-11.79,12.11,0,18.72,6.93t6.61,20.79v41.58l9.08.48v12.75H552.08V143.57l5.26-.48a6.29,6.29,0,0,0,3.51-1.35q1.11-1,1.12-3.9V105q0-8.28-2.63-12.75t-10.2-4.46q-7.57,0-12.11,4.7a15.79,15.79,0,0,0-4.54,11.39v38.55l9.08.48v12.75H503.65V143.57l5.26-.48a6.29,6.29,0,0,0,3.51-1.35Q513.53,140.71,513.53,137.84Z"/><path class="c" d="M127,27.87a48.93,48.93,0,0,1,8.76,17l22.41,4.21V114c0,17.87-11,33.3-32.66,45.87a150.38,150.38,0,0,1-33.91,14,149.29,149.29,0,0,1-33.31-13.71C36.28,147.58,25.1,132,25.1,114V49.09l22.41-4.21a48.93,48.93,0,0,1,8.76-17L10,36.56V114c0,57.48,81.66,75.49,81.66,75.49s81.66-18,81.66-75.49V36.56Z"/><path class="b" d="M126.86,58.22v3H56.45v-3c0-20.63,15.76-37.35,35.2-37.35S126.86,37.59,126.86,58.22Z"/><rect class="b" x="48.41" y="61.18" width="86.49" height="20.93"/><rect class="b" x="36.68" y="79.78" width="109.96" height="9.85"/><rect class="b" x="36.68" y="121.72" width="109.96" height="9.85"/><rect class="b" x="114.25" y="101.87" width="39.7" height="9.85" transform="translate(240.9 -27.3) rotate(90)"/><rect class="b" x="93.03" y="101.87" width="39.7" height="9.85" transform="translate(219.68 -6.08) rotate(90)"/><rect class="b" x="71.81" y="101.87" width="39.7" height="9.85" transform="translate(198.46 15.14) rotate(90)"/><rect class="b" x="50.58" y="101.87" width="39.7" height="9.85" transform="translate(177.23 36.37) rotate(90)"/><rect class="b" x="29.36" y="101.87" width="39.7" height="9.85" transform="translate(156.01 57.59) rotate(90)"/><rect class="b" x="89.11" y="10.5" width="5.09" height="13.91"/><rect class="b" x="85.93" y="15.66" width="11.46" height="8.75"/></svg>