<?xml version="1.0" encoding="utf-8"?>
<!-- Generator: Adobe Illustrator 23.0.3, SVG Export Plug-In . SVG Version: 6.00 Build 0)  -->
<svg version="1.1" id="Layer_1" xmlns="http://www.w3.org/2000/svg" xmlns:xlink="http://www.w3.org/1999/xlink" x="0px" y="0px"
	 viewBox="0 0 1233 850" style="enable-background:new 0 0 1233 850;" xml:space="preserve">
<style type="text/css">
	.st0{fill:#000066;}
	.st1{fill:#006600;}
</style>
<g>
	<path class="st0" d="M279.7,37.9l-1.5,212.6c0,88.4-52.6,122.7-123.2,122.7c-60.9,0-138.3-27-138.3-119.1V37.9
		c0-12-8.4-19.2-16.7-23.4h99.8c-8.3,4.2-16.1,11.4-16.1,23.4v217.8c0,36.4,12.5,87.9,80,87.9c61.9,0,84.3-40.6,84.3-92l-1-213.6
		c0-12-6.2-19.2-14.1-23.4h60.3C285.4,18.6,279.7,25.9,279.7,37.9"/>
	<path class="st0" d="M420.5,373.2c-47.2,0-81.6-16.1-99.7-24.9l-2.6-87.9c9.9,36.9,41,85.8,95.1,85.8c51.5,0,67.1-36.9,67.1-62.4
		c0-49.9-45.3-56.7-92.5-82.2c-47.8-26.5-68.6-54.6-68.6-94.1c0-70.7,66-98.8,113.3-98.8c17.7,0,51.9,3.6,78.5,19.2l2.6,76.9
		c-7.2-27.5-36.9-69.1-86.8-69.1c-39.5,0-55.1,27.6-55.1,49.9c0,31.7,22.4,43.7,71.2,66c48.4,22.9,98.8,40,98.8,112.3
		C541.7,329,484.5,373.2,420.5,373.2"/>
	<path class="st0" d="M703.4,40.5c-12.5,0-40.1,0-47.9,1V341h41.6c117.5,0,150.3-79,150.3-154.9C847.4,123.7,811,40.5,703.4,40.5z
		 M709.6,368H576c7.8-4.7,13.5-12,13.5-23.4V37.9c0-12-5.8-19.2-13.5-23.4h138.3c171,0,205.3,121.2,205.3,171.5
		C919.6,276.5,850,368,709.6,368"/>
	<path class="st0" d="M1039.6,115.9c0,0-35.4,88.4-52,127.4h105C1068.2,185.5,1039.6,115.9,1039.6,115.9z M1121.7,368
		c13.5-7.3,16.1-14.6,12.5-25.5c-1.6-5.2-15.1-36.9-29.6-72.3H977.2c-15.6,35.3-28.1,66-29.2,71.7c-4.6,12.5-2.1,19.7,12,26h-71.7
		c14.5-9.9,19.2-15.6,24.4-25.5c9.9-19.8,146.7-339,146.7-339s138.3,319.2,147.7,339c5.2,10.9,8.8,16.6,26,25.5H1121.7"/>
</g>
<g>
	<path class="st1" d="M1217.4,417.9c0,0-756.6-18.8-1204.6,220c0,0,474.9-187.8,1204.6-169V417.9"/>
	<path class="st1" d="M12.8,417.9c0,0,254.9,2.7,413.1,61.7c0,0-324.6-26.8-413.1-13.4L12.8,417.9"/>
	<path class="st1" d="M12.8,501.1c0,0,182.5-8.1,292.4,2.7c0,0-265.6,32.2-292.4,45.6L12.8,501.1"/>
	<path class="st1" d="M1092,509.3c-1.2-0.1-2.9,0.1-3.9,0.1c-220,4.2-681.4,30.7-1075.1,169.9v167.7h1204.6V509.3
		C1217.5,509.3,1170.8,507.9,1092,509.3"/>
</g>
</svg>
